<svg width="332" height="331" viewBox="0 0 332 331" fill="none" xmlns="http://www.w3.org/2000/svg">
<path d="M258.876 168.706C216.278 172.586 209.445 177.984 182.537 154.028H148.88C121.971 177.984 115.139 172.586 72.5407 168.706C38.2092 165.585 11.807 187.179 2.78125 195.698C4.38395 204.387 6.7458 212.822 9.61379 221.004C18.049 210.46 32.3046 207.423 32.3046 207.423C22.6885 217.377 17.7117 228.68 15.4341 235.26C18.4708 241.839 21.9294 248.081 25.8096 254.155C42.174 190.384 108.138 201.603 108.138 201.603C108.138 201.603 113.03 217.715 79.2046 231.548C53.2241 242.177 41.2461 261.578 37.1128 269.929C41.0774 274.737 45.295 279.376 49.7657 283.763C57.9479 266.386 81.6509 255.42 81.6509 255.42C82.4101 276.34 73.2158 293.126 68.8294 299.79C72.3722 302.404 75.9993 304.766 79.7952 307.044C87.8087 301.561 106.113 286.63 104.595 265.205C102.655 237.79 127.623 222.101 127.623 222.101L129.901 219.148C130.66 234.669 128.129 270.688 101.896 318.347C107.463 320.709 113.283 322.733 119.103 324.42C122.731 319.191 129.479 308.731 132.262 298.946C132.262 298.946 139.179 309.153 137.745 328.722C145.084 329.988 152.507 330.747 160.099 331C154.785 320.793 142.047 291.86 150.314 262.253C150.314 262.253 167.353 305.525 200.166 327.457C210.71 325.264 220.833 321.974 230.449 317.841C218.302 309.406 181.777 282.582 187.513 266.217C193.418 249.262 209.192 244.792 203.625 222.438C206.83 224.631 228.003 239.899 226.147 265.205C224.629 286.63 243.017 301.73 251.115 307.213C254.911 304.935 258.538 302.573 262.081 299.958C257.695 293.21 248.416 276.339 249.175 255.336C249.175 255.336 272.962 266.555 281.145 284.016C285.615 279.629 289.917 274.99 293.882 270.182C289.749 261.747 277.686 242.177 251.621 231.464C217.88 217.63 222.773 201.519 222.773 201.519C222.773 201.519 288.736 190.89 305.101 254.745C309.065 248.672 312.608 242.261 315.645 235.597C313.367 228.933 308.306 217.377 298.606 207.339C298.606 207.339 313.199 210.46 321.718 221.004C324.671 212.991 326.864 204.64 328.551 196.036C319.862 187.516 293.207 165.585 258.876 168.706ZM175.282 245.382C141.541 227.499 164.316 188.275 164.316 188.275C193.334 214.172 175.282 245.382 175.282 245.382Z" fill="url(#paint0_linear_552_857)"/>
<path d="M250.105 22.1848L175.115 121.299L185.997 0.421875C209.194 3.12116 230.872 10.7973 250.105 22.1848Z" fill="url(#paint1_linear_552_857)"/>
<path d="M331.674 158.414L183.889 132.012L281.569 46.2256C311.092 74.9898 329.903 114.551 331.674 158.414Z" fill="url(#paint2_linear_552_857)"/>
<path d="M150.316 132.011L0 158.92C1.6027 114.213 21.0037 73.9769 51.2862 45.0439L150.316 132.011Z" fill="url(#paint3_linear_552_857)"/>
<path d="M159.258 121.215L83.5098 21.0037C102.995 9.78481 124.927 2.44622 148.377 0L159.258 121.215Z" fill="url(#paint4_linear_552_857)"/>
<path d="M167.103 144.666C170.97 144.666 174.104 141.531 174.104 137.664C174.104 133.798 170.97 130.663 167.103 130.663C163.236 130.663 160.102 133.798 160.102 137.664C160.102 141.531 163.236 144.666 167.103 144.666Z" fill="url(#paint5_linear_552_857)"/>
<defs>
<linearGradient id="paint0_linear_552_857" x1="165.666" y1="154.028" x2="165.666" y2="331" gradientUnits="userSpaceOnUse">
<stop stop-color="#F3B600"/>
<stop offset="1" stop-color="#F5BD00"/>
</linearGradient>
<linearGradient id="paint1_linear_552_857" x1="212.61" y1="0.421875" x2="212.61" y2="121.299" gradientUnits="userSpaceOnUse">
<stop stop-color="#F5BD00"/>
<stop offset="1" stop-color="#EFBB0A"/>
</linearGradient>
<linearGradient id="paint2_linear_552_857" x1="257.781" y1="46.2256" x2="257.781" y2="158.414" gradientUnits="userSpaceOnUse">
<stop stop-color="#F5BD00"/>
<stop offset="1" stop-color="#EFBB0A"/>
</linearGradient>
<linearGradient id="paint3_linear_552_857" x1="75.158" y1="45.0439" x2="75.158" y2="158.92" gradientUnits="userSpaceOnUse">
<stop stop-color="#F5BD00"/>
<stop offset="1" stop-color="#EFBB0A"/>
</linearGradient>
<linearGradient id="paint4_linear_552_857" x1="121.384" y1="0" x2="121.384" y2="121.215" gradientUnits="userSpaceOnUse">
<stop stop-color="#F5BD00"/>
<stop offset="1" stop-color="#EFBB0A"/>
</linearGradient>
<linearGradient id="paint5_linear_552_857" x1="167.103" y1="130.663" x2="167.103" y2="144.666" gradientUnits="userSpaceOnUse">
<stop stop-color="#F5BD00"/>
<stop offset="1" stop-color="#EFBB0A"/>
</linearGradient>
</defs>
</svg>
