<svg width="2139" height="339" viewBox="0 0 2139 339" fill="none" xmlns="http://www.w3.org/2000/svg">
<path d="M428.96 277V49.775H513.445C528.898 49.775 542.522 52.6217 554.315 58.315C566.312 63.805 575.665 71.9383 582.375 82.715C589.085 93.2883 592.44 106.2 592.44 121.45C592.44 137.107 588.678 150.425 581.155 161.405C573.835 172.385 563.872 180.518 551.265 185.805L603.42 277H556.45L500.635 177.265L527.475 193.125H470.44V277H428.96ZM470.44 156.525H514.055C521.578 156.525 528.085 155.102 533.575 152.255C539.065 149.205 543.335 145.037 546.385 139.75C549.435 134.463 550.96 128.363 550.96 121.45C550.96 114.333 549.435 108.233 546.385 103.15C543.335 97.8633 539.065 93.7967 533.575 90.95C528.085 87.9 521.578 86.375 514.055 86.375H470.44V156.525ZM665.376 280.66C653.786 280.66 643.721 278.728 635.181 274.865C626.641 271.002 620.032 265.512 615.356 258.395C610.679 251.075 608.341 242.637 608.341 233.08C608.341 223.93 610.374 215.797 614.441 208.68C618.507 201.36 624.811 195.26 633.351 190.38C641.891 185.5 652.667 182.043 665.681 180.01L719.971 171.165V201.665L673.306 209.595C665.376 211.018 659.479 213.56 655.616 217.22C651.752 220.88 649.821 225.658 649.821 231.555C649.821 237.248 651.956 241.823 656.226 245.28C660.699 248.533 666.189 250.16 672.696 250.16C681.032 250.16 688.352 248.432 694.656 244.975C701.162 241.315 706.144 236.333 709.601 230.03C713.261 223.727 715.091 216.813 715.091 209.29V166.59C715.091 159.473 712.244 153.577 706.551 148.9C701.061 144.02 693.741 141.58 684.591 141.58C676.051 141.58 668.426 143.918 661.716 148.595C655.209 153.068 650.431 159.067 647.381 166.59L614.746 150.73C617.999 141.987 623.082 134.463 629.996 128.16C637.112 121.653 645.449 116.57 655.006 112.91C664.562 109.25 674.932 107.42 686.116 107.42C699.739 107.42 711.736 109.962 722.106 115.045C732.476 119.925 740.507 126.838 746.201 135.785C752.097 144.528 755.046 154.797 755.046 166.59V277H717.226V248.635L725.766 248.025C721.496 255.142 716.412 261.14 710.516 266.02C704.619 270.697 697.909 274.357 690.386 277C682.862 279.44 674.526 280.66 665.376 280.66ZM791.974 277V111.08H831.929V277H791.974ZM791.974 92.475V49.775H831.929V92.475H791.974ZM842.285 277V244.67L938.665 133.04L944.765 146.765H846.555V111.08H980.145V143.715L885.595 255.345L879.495 241.62H980.755V277H842.285ZM1072.39 280.66C1056.12 280.66 1041.28 276.898 1027.86 269.375C1014.64 261.852 1004.07 251.583 996.141 238.57C988.414 225.557 984.551 210.713 984.551 194.04C984.551 177.367 988.414 162.523 996.141 149.51C1004.07 136.497 1014.64 126.228 1027.86 118.705C1041.08 111.182 1055.92 107.42 1072.39 107.42C1088.66 107.42 1103.4 111.182 1116.62 118.705C1129.83 126.228 1140.3 136.497 1148.03 149.51C1155.96 162.32 1159.93 177.163 1159.93 194.04C1159.93 210.713 1155.96 225.557 1148.03 238.57C1140.1 251.583 1129.53 261.852 1116.31 269.375C1103.09 276.898 1088.45 280.66 1072.39 280.66ZM1072.39 244.06C1081.34 244.06 1089.17 241.925 1095.88 237.655C1102.79 233.385 1108.18 227.488 1112.04 219.965C1116.11 212.238 1118.14 203.597 1118.14 194.04C1118.14 184.28 1116.11 175.74 1112.04 168.42C1108.18 160.897 1102.79 155 1095.88 150.73C1089.17 146.257 1081.34 144.02 1072.39 144.02C1063.24 144.02 1055.21 146.257 1048.3 150.73C1041.38 155 1035.89 160.897 1031.83 168.42C1027.96 175.74 1026.03 184.28 1026.03 194.04C1026.03 203.597 1027.96 212.238 1031.83 219.965C1035.89 227.488 1041.38 233.385 1048.3 237.655C1055.21 241.925 1063.24 244.06 1072.39 244.06ZM1178.03 277V111.08H1215.54V147.985L1212.49 142.495C1216.35 130.092 1222.35 121.45 1230.49 116.57C1238.82 111.69 1248.79 109.25 1260.38 109.25H1270.14V144.63H1255.8C1244.41 144.63 1235.26 148.188 1228.35 155.305C1221.44 162.218 1217.98 171.978 1217.98 184.585V277H1178.03ZM1330.23 280.66C1318.64 280.66 1308.57 278.728 1300.03 274.865C1291.49 271.002 1284.88 265.512 1280.21 258.395C1275.53 251.075 1273.19 242.637 1273.19 233.08C1273.19 223.93 1275.23 215.797 1279.29 208.68C1283.36 201.36 1289.66 195.26 1298.2 190.38C1306.74 185.5 1317.52 182.043 1330.53 180.01L1384.82 171.165V201.665L1338.16 209.595C1330.23 211.018 1324.33 213.56 1320.47 217.22C1316.6 220.88 1314.67 225.658 1314.67 231.555C1314.67 237.248 1316.81 241.823 1321.08 245.28C1325.55 248.533 1331.04 250.16 1337.55 250.16C1345.88 250.16 1353.2 248.432 1359.51 244.975C1366.01 241.315 1371 236.333 1374.45 230.03C1378.11 223.727 1379.94 216.813 1379.94 209.29V166.59C1379.94 159.473 1377.1 153.577 1371.4 148.9C1365.91 144.02 1358.59 141.58 1349.44 141.58C1340.9 141.58 1333.28 143.918 1326.57 148.595C1320.06 153.068 1315.28 159.067 1312.23 166.59L1279.6 150.73C1282.85 141.987 1287.93 134.463 1294.85 128.16C1301.96 121.653 1310.3 116.57 1319.86 112.91C1329.41 109.25 1339.78 107.42 1350.97 107.42C1364.59 107.42 1376.59 109.962 1386.96 115.045C1397.33 119.925 1405.36 126.838 1411.05 135.785C1416.95 144.528 1419.9 154.797 1419.9 166.59V277H1382.08V248.635L1390.62 248.025C1386.35 255.142 1381.26 261.14 1375.37 266.02C1369.47 270.697 1362.76 274.357 1355.24 277C1347.71 279.44 1339.38 280.66 1330.23 280.66Z" fill="#FAFAFA"/>
<path d="M258.877 176.706C216.279 180.586 209.446 185.984 182.537 162.028H148.881C121.972 185.984 115.14 180.586 72.5417 176.706C38.2102 173.585 11.808 195.179 2.78223 203.698C4.38493 212.387 6.74678 220.822 9.61476 229.004C18.05 218.46 32.3056 215.423 32.3056 215.423C22.6894 225.377 17.7126 236.68 15.4351 243.26C18.4718 249.839 21.9303 256.081 25.8106 262.155C42.175 198.384 108.138 209.603 108.138 209.603C108.138 209.603 113.031 225.715 79.2056 239.548C53.225 250.177 41.2471 269.578 37.1138 277.929C41.0783 282.737 45.296 287.376 49.7667 291.763C57.9489 274.386 81.6519 263.42 81.6519 263.42C82.4111 284.34 73.2168 301.126 68.8304 307.79C72.3732 310.404 76.0003 312.766 79.7961 315.044C87.8096 309.561 106.114 294.63 104.596 273.205C102.656 245.79 127.624 230.101 127.624 230.101L129.902 227.148C130.661 242.669 128.13 278.688 101.896 326.347C107.464 328.709 113.284 330.733 119.104 332.42C122.732 327.191 129.48 316.731 132.263 306.946C132.263 306.946 139.18 317.153 137.746 336.722C145.085 337.988 152.508 338.747 160.1 339C154.785 328.793 142.048 299.86 150.315 270.253C150.315 270.253 167.354 313.525 200.167 335.457C210.711 333.264 220.833 329.974 230.45 325.841C218.303 317.406 181.778 290.582 187.514 274.217C193.419 257.262 209.193 252.792 203.626 230.438C206.831 232.631 228.004 247.899 226.148 273.205C224.63 294.63 243.018 309.73 251.116 315.213C254.912 312.935 258.539 310.573 262.082 307.958C257.696 301.21 248.417 284.339 249.176 263.336C249.176 263.336 272.963 274.555 281.146 292.016C285.616 287.629 289.918 282.99 293.883 278.182C289.75 269.747 277.687 250.177 251.622 239.464C217.881 225.63 222.774 209.519 222.774 209.519C222.774 209.519 288.737 198.89 305.102 262.745C309.066 256.672 312.609 250.261 315.646 243.597C313.368 236.933 308.307 225.377 298.607 215.339C298.607 215.339 313.2 218.46 321.719 229.004C324.672 220.991 326.865 212.64 328.552 204.036C319.863 195.516 293.208 173.585 258.877 176.706ZM175.283 253.382C141.542 235.499 164.317 196.275 164.317 196.275C193.335 222.172 175.283 253.382 175.283 253.382Z" fill="url(#paint0_linear_548_841)"/>
<path d="M250.105 30.1848L175.115 129.299L185.997 8.42188C209.194 11.1212 230.872 18.7973 250.105 30.1848Z" fill="url(#paint1_linear_548_841)"/>
<path d="M331.675 166.414L183.89 140.012L281.57 54.2256C311.093 82.9898 329.904 122.551 331.675 166.414Z" fill="url(#paint2_linear_548_841)"/>
<path d="M150.316 140.011L0 166.92C1.6027 122.213 21.0037 81.9769 51.2862 53.0439L150.316 140.011Z" fill="url(#paint3_linear_548_841)"/>
<path d="M159.257 129.215L83.5088 29.0037C102.994 17.7848 124.926 10.4462 148.376 8L159.257 129.215Z" fill="url(#paint4_linear_548_841)"/>
<path d="M167.102 152.666C170.969 152.666 174.103 149.531 174.103 145.664C174.103 141.798 170.969 138.663 167.102 138.663C163.235 138.663 160.101 141.798 160.101 145.664C160.101 149.531 163.235 152.666 167.102 152.666Z" fill="url(#paint5_linear_548_841)"/>
<path d="M1605.54 280.66C1589.48 280.66 1574.74 277.813 1561.32 272.12C1547.9 266.223 1536.2 258.09 1526.24 247.72C1516.48 237.147 1508.86 224.743 1503.37 210.51C1497.88 196.277 1495.13 180.62 1495.13 163.54C1495.13 146.46 1497.88 130.803 1503.37 116.57C1508.86 102.337 1516.48 89.9333 1526.24 79.36C1536.2 68.7867 1547.9 60.6533 1561.32 54.96C1574.74 49.0633 1589.48 46.115 1605.54 46.115C1620.99 46.115 1634.82 48.86 1647.02 54.35C1659.42 59.84 1669.79 66.9567 1678.13 75.7C1686.67 84.24 1692.77 93.2883 1696.43 102.845L1673.56 112.91C1667.86 99.6933 1659.12 89.12 1647.32 81.19C1635.74 73.0567 1621.81 68.99 1605.54 68.99C1588.87 68.99 1574.02 72.955 1561.01 80.885C1548 88.815 1537.83 99.8967 1530.51 114.13C1523.19 128.16 1519.53 144.63 1519.53 163.54C1519.53 182.247 1523.19 198.717 1530.51 212.95C1537.83 227.183 1548 238.265 1561.01 246.195C1574.02 253.922 1588.87 257.785 1605.54 257.785C1621.81 257.785 1635.74 253.82 1647.32 245.89C1659.12 237.96 1667.86 227.387 1673.56 214.17L1696.43 224.235C1692.77 233.588 1686.67 242.637 1678.13 251.38C1669.79 259.92 1659.42 266.935 1647.02 272.425C1634.82 277.915 1620.99 280.66 1605.54 280.66ZM1768.86 280.66C1758.49 280.66 1749.24 278.728 1741.11 274.865C1732.97 270.798 1726.57 265.308 1721.89 258.395C1717.22 251.482 1714.88 243.552 1714.88 234.605C1714.88 226.065 1716.71 218.338 1720.37 211.425C1724.03 204.308 1729.72 198.31 1737.45 193.43C1745.17 188.55 1755.04 185.093 1767.03 183.06L1831.08 172.385V193.125L1772.52 202.885C1760.73 204.918 1752.19 208.68 1746.9 214.17C1741.82 219.66 1739.28 226.167 1739.28 233.69C1739.28 241.01 1742.12 247.212 1747.82 252.295C1753.71 257.378 1761.24 259.92 1770.39 259.92C1781.57 259.92 1791.33 257.582 1799.67 252.905C1808 248.025 1814.51 241.518 1819.19 233.385C1823.86 225.252 1826.2 216.203 1826.2 206.24V164.76C1826.2 155 1822.64 147.07 1815.53 140.97C1808.41 134.87 1799.16 131.82 1787.77 131.82C1777.81 131.82 1769.07 134.362 1761.54 139.445C1754.02 144.325 1748.43 150.73 1744.77 158.66L1724.03 147.375C1727.08 140.462 1731.86 134.158 1738.36 128.465C1745.07 122.772 1752.7 118.298 1761.24 115.045C1769.78 111.588 1778.62 109.86 1787.77 109.86C1799.77 109.86 1810.34 112.198 1819.49 116.875C1828.85 121.552 1836.06 128.058 1841.15 136.395C1846.43 144.528 1849.08 153.983 1849.08 164.76V277H1826.2V244.365L1829.56 247.72C1826.71 253.82 1822.24 259.412 1816.14 264.495C1810.24 269.375 1803.23 273.34 1795.09 276.39C1787.16 279.237 1778.42 280.66 1768.86 280.66ZM1883.93 277V113.52H1906.8V140.36L1903.75 136.395C1907.62 128.668 1913.41 122.568 1921.14 118.095C1929.07 113.622 1938.63 111.385 1949.81 111.385H1960.18V134.26H1945.84C1934.05 134.26 1924.6 137.92 1917.48 145.24C1910.36 152.56 1906.8 162.93 1906.8 176.35V277H1883.93ZM2049.21 280.66C2033.96 280.66 2020.13 277 2007.73 269.68C1995.53 262.157 1985.87 251.888 1978.75 238.875C1971.63 225.862 1968.08 211.12 1968.08 194.65C1968.08 178.18 1971.53 163.642 1978.45 151.035C1985.36 138.225 1994.71 128.16 2006.51 120.84C2018.5 113.52 2031.92 109.86 2046.77 109.86C2058.56 109.86 2069.03 112.097 2078.18 116.57C2087.53 120.84 2095.46 126.737 2101.97 134.26C2108.48 141.58 2113.46 149.917 2116.92 159.27C2120.37 168.42 2122.1 177.875 2122.1 187.635C2122.1 189.668 2122 192.007 2121.8 194.65C2121.59 197.09 2121.29 199.632 2120.88 202.275H1982.72V180.925H2107.77L2096.79 190.075C2098.62 178.892 2097.29 168.928 2092.82 160.185C2088.55 151.238 2082.35 144.223 2074.22 139.14C2066.08 133.853 2056.93 131.21 2046.77 131.21C2036.6 131.21 2027.14 133.853 2018.4 139.14C2009.86 144.427 2003.15 151.848 1998.27 161.405C1993.39 170.758 1991.46 181.942 1992.48 194.955C1991.46 207.968 1993.49 219.355 1998.58 229.115C2003.86 238.672 2010.98 246.093 2019.93 251.38C2029.08 256.667 2038.84 259.31 2049.21 259.31C2061.2 259.31 2071.27 256.463 2079.4 250.77C2087.53 245.077 2094.14 237.96 2099.23 229.42L2118.75 239.79C2115.49 247.11 2110.51 253.922 2103.8 260.225C2097.09 266.325 2089.06 271.307 2079.71 275.17C2070.56 278.83 2060.39 280.66 2049.21 280.66Z" fill="#9F9FA9"/>
<defs>
<linearGradient id="paint0_linear_548_841" x1="165.667" y1="162.028" x2="165.667" y2="339" gradientUnits="userSpaceOnUse">
<stop stop-color="#F3B600"/>
<stop offset="1" stop-color="#F5BD00"/>
</linearGradient>
<linearGradient id="paint1_linear_548_841" x1="212.61" y1="8.42187" x2="212.61" y2="129.299" gradientUnits="userSpaceOnUse">
<stop stop-color="#F5BD00"/>
<stop offset="1" stop-color="#EFBB0A"/>
</linearGradient>
<linearGradient id="paint2_linear_548_841" x1="257.782" y1="54.2256" x2="257.782" y2="166.414" gradientUnits="userSpaceOnUse">
<stop stop-color="#F5BD00"/>
<stop offset="1" stop-color="#EFBB0A"/>
</linearGradient>
<linearGradient id="paint3_linear_548_841" x1="75.158" y1="53.0439" x2="75.158" y2="166.92" gradientUnits="userSpaceOnUse">
<stop stop-color="#F5BD00"/>
<stop offset="1" stop-color="#EFBB0A"/>
</linearGradient>
<linearGradient id="paint4_linear_548_841" x1="121.383" y1="8" x2="121.383" y2="129.215" gradientUnits="userSpaceOnUse">
<stop stop-color="#F5BD00"/>
<stop offset="1" stop-color="#EFBB0A"/>
</linearGradient>
<linearGradient id="paint5_linear_548_841" x1="167.102" y1="138.663" x2="167.102" y2="152.666" gradientUnits="userSpaceOnUse">
<stop stop-color="#F5BD00"/>
<stop offset="1" stop-color="#EFBB0A"/>
</linearGradient>
</defs>
</svg>
